# xmcd
#
# Track frame offsets:
#	183
#	26183
#	47120
#	67670
#	93133
#	114845
#	130458
#	151908
#	165570
#	180433
#	201458
#	221170
#	241570
#	256733
#	279345
#
# Disc length: 3980 seconds
#
# Revision: 0
# Processed by: cddbd v1.5.1PL2 Copyright (c) Steve Scherf et al.
# Submitted via: audiograbber 1.81.03
#
DISCID=c20f8a0f
DTITLE=PHIL COLLINS HITS - ANOTHER DAY IN PARADISE
DYEAR=1900
DGENRE=Blues
TTITLE0=P COLLINS - In the air tonight
TTITLE1=P COLLINS - Do you remember ?
TTITLE2=P COLLINS - Another day in paradise
TTITLE3=P COLLINS - Take me home
TTITLE4=P COLLINS - I don't care anymore
TTITLE5=C BAYER SAGER, T WINE - Groovy kind of love
TTITLE6=P COLLINS - Don't loose my number
TTITLE7=E HOLLAND, B HOLLAND, L DOZIER - You can't hurry love
TTITLE8=P COLLINS - Against all odds
TTITLE9=P COLLINS, N EAST, P BAILEY - Easy lover
TTITLE10=P COLLINS, D STEURMER - Something happened on the way to heaven
TTITLE11=P COLLINS - One more night
TTITLE12=P COLLINS, L DOZIER - Two hearts
TTITLE13=S BISHOP - Seperate lives
TTITLE14=P COLLINS - Do you know, do you care
EXTD=
EXTT0=
EXTT1=
EXTT2=
EXTT3=
EXTT4=
EXTT5=
EXTT6=
EXTT7=
EXTT8=
EXTT9=
EXTT10=
EXTT11=
EXTT12=
EXTT13=
EXTT14=
PLAYORDER=
